<svg width="57" height="33" viewBox="0 0 57 33" fill="none" xmlns="http://www.w3.org/2000/svg">
<path d="M14.9518 19.921C13.5385 18.9344 11.9887 20.2055 11.9887 20.2055C9.83481 21.6359 6.95407 21.1843 5.3341 19.1622C3.71413 17.1402 3.88533 14.2098 5.72958 12.3929C7.57383 10.576 10.4873 10.4675 12.4598 12.1423C13.2258 12.6118 14.19 12.6026 14.9471 12.1186C14.9471 12.1186 16.6523 10.6957 14.2499 8.79843H14.3205C10.6545 6.17949 5.61616 6.77102 2.64697 10.169C-0.322227 13.5669 -0.263346 18.6739 2.78339 22.0015C5.83013 25.3291 10.8808 25.8027 14.4854 23.0988C16.5393 21.2158 14.9518 19.921 14.9518 19.921Z" fill="#D84727"/>
<path d="M40.7336 19.9211C39.3204 18.9345 37.7752 20.2056 37.7752 20.2056C35.6229 21.631 32.7474 21.1777 31.1308 19.1582C29.5142 17.1386 29.6852 14.2131 31.5258 12.3983C33.3664 10.5835 36.2748 10.4728 38.2463 12.1424C39.0111 12.6099 39.973 12.6007 40.7289 12.1187C40.7289 12.1187 42.4342 10.6958 40.0317 8.79853H40.1023C36.4369 6.18594 31.4039 6.78108 28.4394 10.1777C25.4748 13.5743 25.5354 18.6762 28.5796 22.0006C31.6238 25.3249 36.6695 25.7989 40.2719 23.0989C42.3211 21.2159 40.7336 19.9211 40.7336 19.9211Z" fill="#D84727"/>
<path d="M20.9296 5.9005C21.9546 5.9005 22.7856 4.89393 22.7856 3.65227C22.7856 2.41062 21.9546 1.40405 20.9296 1.40405C19.9045 1.40405 19.0735 2.41062 19.0735 3.65227C19.0735 4.89393 19.9045 5.9005 20.9296 5.9005Z" fill="#D84727"/>
<path d="M22.7858 9.1969C22.736 8.20265 21.9208 7.42224 20.9321 7.42224C19.9434 7.42224 19.1282 8.20265 19.0784 9.1969V22.6578C19.0439 23.347 19.3895 23.9993 19.9772 24.3544C20.565 24.7094 21.2992 24.7094 21.887 24.3544C22.4747 23.9993 22.8203 23.347 22.7858 22.6578V9.1969Z" fill="#D84727"/>
<path d="M46.8341 5.9005C47.8591 5.9005 48.6901 4.89393 48.6901 3.65227C48.6901 2.41062 47.8591 1.40405 46.8341 1.40405C45.809 1.40405 44.978 2.41062 44.978 3.65227C44.978 4.89393 45.809 5.9005 46.8341 5.9005Z" fill="#D84727"/>
<path d="M48.69 9.1969C48.6402 8.20265 47.8251 7.42224 46.8363 7.42224C45.8476 7.42224 45.0325 8.20265 44.9827 9.1969V22.6578C44.9481 23.347 45.2937 23.9993 45.8815 24.3544C46.4692 24.7094 47.2035 24.7094 47.7912 24.3544C48.379 23.9993 48.7245 23.347 48.69 22.6578V9.1969Z" fill="#D84727"/>
<path d="M56.7077 2.34314C56.7422 1.65389 56.3967 1.00159 55.8089 0.646538C55.2212 0.291486 54.4869 0.291486 53.8992 0.646538C53.3114 1.00159 52.9658 1.65389 53.0004 2.34314V9.19689V22.6578C52.9658 23.347 53.3114 23.9993 53.8992 24.3544C54.4869 24.7094 55.2212 24.7094 55.8089 24.3544C56.3967 23.9993 56.7422 23.347 56.7077 22.6578V9.19689V2.34314Z" fill="#D84727"/>
<path d="M26.5825 27.8183C25.744 27.0214 24.3025 27.5384 24.3025 27.5384C23.4098 28.4407 22.1969 28.9478 20.932 28.9478C19.6671 28.9478 18.4542 28.4407 17.5615 27.5384C17.5615 27.5384 16.1153 27.0214 15.2768 27.8183C14.6926 28.4165 14.5541 29.324 14.9329 30.0712C16.5106 31.6966 18.6724 32.6129 20.9297 32.6129C23.1869 32.6129 25.3487 31.6966 26.9264 30.0712C27.3098 29.3247 27.1709 28.4144 26.5825 27.8183Z" fill="#D84727"/>
</svg>
